<svg width="637" height="391" xmlns="http://www.w3.org/2000/svg"><path d="M 302 362 L 311 362 L 312 363 L 334 362 L 324 362 L 323 363 Z" fill="black"/><path d="M 336 361 L 342 361 Z" fill="black"/><path d="M 294 361 L 300 361 Z" fill="black"/><path d="M 288 360 L 292 360 Z" fill="black"/><path d="M 283 359 L 286 359 Z" fill="black"/><path d="M 357 358 L 354 358 L 353 359 L 350 359 L 349 360 L 344 360 L 349 360 L 350 359 L 353 359 L 354 358 Z" fill="black"/><path d="M 279 358 L 281 358 Z" fill="black"/><path d="M 359 357 L 361 357 Z" fill="black"/><path d="M 276 357 L 277 357 Z" fill="black"/><path d="M 272 356 L 273 356 Z" fill="black"/><path d="M 376 352 L 375 352 L 374 353 L 372 353 L 371 354 L 369 354 L 368 355 L 366 355 L 365 356 L 363 356 L 365 356 L 366 355 L 368 355 L 369 354 L 371 354 L 372 353 L 374 353 L 375 352 Z" fill="black"/><path d="M 260 352 L 261 352 L 262 353 L 264 353 L 265 354 L 267 354 L 268 355 L 270 355 L 268 355 L 267 354 L 265 354 L 264 353 L 262 353 L 261 352 Z" fill="black"/><path d="M 257 351 L 258 351 Z" fill="black"/><path d="M 386 348 L 385 348 L 384 349 L 383 349 L 382 350 L 380 350 L 379 351 L 378 351 L 379 351 L 380 350 L 382 350 L 383 349 L 384 349 L 385 348 Z" fill="black"/><path d="M 250 348 L 251 348 Z" fill="black"/><path d="M 237 341 L 238 342 Z" fill="black"/><path d="M 401 340 L 400 341 L 399 341 L 398 342 L 399 341 L 400 341 Z" fill="black"/><path d="M 406 337 L 405 338 Z" fill="black"/><path d="M 230 337 L 231 338 Z" fill="black"/><path d="M 409 335 L 408 336 Z" fill="black"/><path d="M 227 335 L 228 336 Z" fill="black"/><path d="M 412 333 L 411 334 Z" fill="black"/><path d="M 224 333 L 225 334 Z" fill="black"/><path d="M 415 331 L 414 332 Z" fill="black"/><path d="M 221 331 L 222 332 Z" fill="black"/><path d="M 419 328 L 417 330 Z" fill="black"/><path d="M 217 328 L 219 330 Z" fill="black"/><path d="M 424 324 L 422 326 Z" fill="black"/><path d="M 212 324 L 214 326 Z" fill="black"/><path d="M 203 316 L 209 322 Z" fill="black"/><path d="M 435 314 L 427 322 Z" fill="black"/><path d="M 444 305 L 437 312 Z" fill="black"/><path d="M 192 305 L 197 310 Z" fill="black"/><path d="M 449 299 L 447 301 Z" fill="black"/><path d="M 187 299 L 189 301 Z" fill="black"/><path d="M 452 295 L 451 296 Z" fill="black"/><path d="M 184 295 L 185 296 Z" fill="black"/><path d="M 455 291 L 454 292 Z" fill="black"/><path d="M 181 291 L 182 292 Z" fill="black"/><path d="M 457 288 L 456 289 Z" fill="black"/><path d="M 179 288 L 180 289 Z" fill="black"/><path d="M 459 285 L 458 286 Z" fill="black"/><path d="M 177 285 L 178 286 Z" fill="black"/><path d="M 476 249 L 476 250 Z" fill="black"/><path d="M 160 249 L 160 250 Z" fill="black"/><path d="M 478 243 L 478 244 Z" fill="black"/><path d="M 158 243 L 158 244 Z" fill="black"/><path d="M 479 239 L 479 240 Z" fill="black"/><path d="M 156 236 L 156 237 Z" fill="black"/><path d="M 480 235 L 480 236 Z" fill="black"/><path d="M 481 231 L 481 232 Z" fill="black"/><path d="M 155 231 L 155 233 Z" fill="black"/><path d="M 482 226 L 482 227 Z" fill="black"/><path d="M 154 226 L 154 228 Z" fill="black"/><path d="M 153 221 L 153 222 Z" fill="black"/><path d="M 483 220 L 483 222 Z" fill="black"/><path d="M 152 212 L 152 216 Z" fill="black"/><path d="M 484 211 L 484 215 Z" fill="black"/><path d="M 485 186 L 485 206 Z" fill="black"/><path d="M 151 185 L 151 205 Z" fill="black"/><path d="M 484 176 L 484 179 Z" fill="black"/><path d="M 152 175 L 152 178 Z" fill="black"/><path d="M 483 169 L 483 171 Z" fill="black"/><path d="M 153 169 L 153 170 Z" fill="black"/><path d="M 154 163 L 154 164 Z" fill="black"/><path d="M 481 159 L 481 160 Z" fill="black"/><path d="M 155 158 L 155 159 Z" fill="black"/><path d="M 156 154 L 156 155 Z" fill="black"/><path d="M 157 150 L 157 151 Z" fill="black"/><path d="M 179 103 L 178 104 Z" fill="black"/><path d="M 181 100 L 180 101 Z" fill="black"/><path d="M 244 110 L 220 150 L 220 241 L 233 271 L 276 294 L 360 294 L 391 282 L 415 244 L 416 179 L 382 167 L 368 122 L 330 98 L 272 98 Z" fill="black"/><path d="M 452 96 L 453 97 Z" fill="black"/><path d="M 184 96 L 183 97 Z" fill="black"/><path d="M 187 92 L 185 94 Z" fill="black"/><path d="M 192 86 L 190 88 Z" fill="black"/><path d="M 443 85 L 445 87 Z" fill="black"/><path d="M 203 74 L 197 80 Z" fill="black"/><path d="M 426 68 L 428 70 Z" fill="black"/><path d="M 211 67 L 208 70 Z" fill="black"/><path d="M 421 64 L 422 65 Z" fill="black"/><path d="M 216 63 L 214 65 Z" fill="black"/><path d="M 417 61 L 418 62 Z" fill="black"/><path d="M 220 60 L 219 61 Z" fill="black"/><path d="M 413 58 L 414 59 Z" fill="black"/><path d="M 223 58 L 222 59 Z" fill="black"/><path d="M 232 52 L 231 53 Z" fill="black"/><path d="M 381 41 L 382 41 Z" fill="black"/><path d="M 254 41 L 255 41 Z" fill="black"/><path d="M 259 39 L 260 39 Z" fill="black"/><path d="M 373 38 L 374 38 Z" fill="black"/><path d="M 367 36 L 368 36 Z" fill="black"/><path d="M 364 35 L 365 35 Z" fill="black"/><path d="M 271 35 L 272 35 Z" fill="black"/><path d="M 360 34 L 361 34 Z" fill="black"/><path d="M 274 34 L 276 34 Z" fill="black"/><path d="M 356 33 L 358 33 Z" fill="black"/><path d="M 278 33 L 280 33 Z" fill="black"/><path d="M 351 32 L 354 32 Z" fill="black"/><path d="M 282 32 L 284 32 Z" fill="black"/><path d="M 346 31 L 349 31 Z" fill="black"/><path d="M 287 31 L 290 31 Z" fill="black"/><path d="M 339 30 L 343 30 Z" fill="black"/><path d="M 293 30 L 297 30 Z" fill="black"/><path d="M 328 29 L 335 29 Z" fill="black"/><path d="M 300 29 L 307 29 Z" fill="black"/></svg>