<svg fill="#333" height="512pt" viewBox="0 0 512 512" width="512pt" xmlns="http://www.w3.org/2000/svg"><path d="m437.019531 74.980469c-48.351562-48.351563-112.640625-74.980469-181.019531-74.980469s-132.667969 26.628906-181.019531 74.980469c-48.351563 48.351562-74.980469 112.640625-74.980469 181.019531s26.628906 132.667969 74.980469 181.019531c48.351562 48.351563 112.640625 74.980469 181.019531 74.980469s132.667969-26.628906 181.019531-74.980469c48.351563-48.351562 74.980469-112.640625 74.980469-181.019531s-26.628906-132.667969-74.980469-181.019531zm-267.757812 292.957031c-13.730469 0-24.90625-11.171875-24.90625-24.90625s11.175781-24.90625 24.90625-24.90625c13.734375 0 24.90625 11.171875 24.90625 24.90625s-11.171875 24.90625-24.90625 24.90625zm80.277343 4.925781c-8.28125 0-15-6.714843-15-15 0-44.171875-35.9375-80.109375-80.109374-80.109375-8.285157 0-15-6.71875-15-15 0-8.285156 6.714843-15 15-15 60.714843 0 110.109374 49.394532 110.109374 110.109375 0 8.285157-6.714843 15-15 15zm67.09375 0c-8.285156 0-15-6.714843-15-15 0-81.167969-66.035156-147.203125-147.203124-147.203125-8.285157 0-15-6.714844-15-15s6.714843-15 15-15c97.710937 0 177.203124 79.492188 177.203124 177.203125 0 8.285157-6.714843 15-15 15zm66.292969 0c-8.28125 0-15-6.714843-15-15 0-117.722656-95.773437-213.496093-213.496093-213.496093-8.285157 0-15-6.714844-15-15 0-8.285157 6.714843-15 15-15 65.039062 0 126.1875 25.328124 172.179687 71.316406 45.988281 45.992187 71.316406 107.140625 71.316406 172.179687 0 8.285157-6.714843 15-15 15zm0 0"/></svg>